<svg id="visual" 
viewBox="0 0 900 600" 
width="900" 
height="600" 
xmlns="http://www.w3.org/2000/svg" 
xmlns:xlink="http://www.w3.org/1999/xlink" 
version="1.1">
<rect x="0" y="0" width="900" height="600" fill="#FFFFFF"></rect>
<path d="M0 101L50 94L100 107L150 92L200 103L250 94L300 103L350 107L400 107L450 100L500 100L550 106L600 97L650 103L700 95L750 95L800 105L850 100L900 96L900 0L850 0L800 0L750 0L700 0L650 0L600 0L550 0L500 0L450 0L400 0L350 0L300 0L250 0L200 0L150 0L100 0L50 0L0 0Z" fill="#ffffff"></path>
<path d="M0 92L50 85L100 79L150 84L200 91L250 85L300 83L350 91L400 84L450 88L500 86L550 86L600 83L650 84L700 89L750 85L800 81L850 88L900 80L900 0L850 0L800 0L750 0L700 0L650 0L600 0L550 0L500 0L450 0L400 0L350 0L300 0L250 0L200 0L150 0L100 0L50 0L0 0Z" fill="#d8d8dd"></path>
<path d="M0 66L50 70L100 75L150 66L200 76L250 70L300 73L350 75L400 77L450 78L500 65L550 76L600 70L650 68L700 76L750 72L800 70L850 69L900 66L900 0L850 0L800 0L750 0L700 0L650 0L600 0L550 0L500 0L450 0L400 0L350 0L300 0L250 0L200 0L150 0L100 0L50 0L0 0Z" fill="#b2b3bb"></path>
<path d="M0 63L50 52L100 55L150 59L200 50L250 56L300 50L350 53L400 64L450 52L500 53L550 59L600 54L650 56L700 63L750 57L800 52L850 54L900 59L900 0L850 0L800 0L750 0L700 0L650 0L600 0L550 0L500 0L450 0L400 0L350 0L300 0L250 0L200 0L150 0L100 0L50 0L0 0Z" fill="#8e8f9b"></path>
<path d="M0 46L50 47L100 39L150 37L200 38L250 46L300 46L350 37L400 43L450 46L500 48L550 42L600 43L650 41L700 37L750 37L800 40L850 43L900 45L900 0L850 0L800 0L750 0L700 0L650 0L600 0L550 0L500 0L450 0L400 0L350 0L300 0L250 0L200 0L150 0L100 0L50 0L0 0Z" fill="#6b6c7c"></path>
<path d="M0 29L50 26L100 30L150 27L200 31L250 30L300 24L350 27L400 24L450 30L500 24L550 33L600 30L650 28L700 29L750 24L800 33L850 23L900 29L900 0L850 0L800 0L750 0L700 0L650 0L600 0L550 0L500 0L450 0L400 0L350 0L300 0L250 0L200 0L150 0L100 0L50 0L0 0Z" fill="#4a4c5e"></path>
<path d="M0 19L50 11L100 14L150 14L200 16L250 12L300 9L350 11L400 11L450 18L500 18L550 19L600 9L650 14L700 14L750 8L800 11L850 8L900 16L900 0L850 0L800 0L750 0L700 0L650 0L600 0L550 0L500 0L450 0L400 0L350 0L300 0L250 0L200 0L150 0L100 0L50 0L0 0Z" fill="#2b2d42"></path></svg>