<?xml version="1.0" encoding="utf-8"?>
<!-- Generator: Adobe Illustrator 26.3.1, SVG Export Plug-In . SVG Version: 6.00 Build 0)  -->
<svg version="1.1" id="visual" xmlns="http://www.w3.org/2000/svg" xmlns:xlink="http://www.w3.org/1999/xlink" x="0px" y="0px"
	 viewBox="0 0 900 600" enable-background="new 0 0 900 600" xml:space="preserve">
<g>
	<rect y="0" fill="#FFFFFF" width="900" height="600"/>
</g>
<g id="blco">
	<path fill="#FFFFFF" d="M-310.7,95l50-7l50,13l50-15l50,11l50-9l50,9l50,4h50l50-7h50l50,6l50-9l50,6l50-8h50l50,10l50-5l50-4V-6
		h-50h-50h-50h-50h-50h-50h-50h-50h-50h-50h-50h-50h-50h-50h-50h-50h-50h-50V95z"/>
	<path fill="#FFFFFF" d="M1492.4,95l-50.2-7l-50.2,13l-50.2-15l-50.2,11l-50.2-9l-50.2,9l-50.2,4H1091l-50.2-7h-50.2l-50.2,6
		l-50.2-9l-50.2,6L790,89h-50.2l-50.2,10l-50.2-5l-50.2-4V-6h50.2h50.2h50.2H790h50.2h50.2h50.2h50.2h50.2h50.2h50.2h50.2h50.2h50.2
		h50.2h50.2h50.2h50.2V95z"/>
</g>
<g id="gris">
	<path fill="#D8D8DD" d="M-3,84l25-7l25-6l25,5l25,7l25-6l25-2l25,8l25-7l25,4l25-2h25l25-3l25,1l25,5l25-4l25-4l25,7l25-8V-8h-25
		h-25h-25h-25h-25h-25h-25h-25h-25h-25h-25h-25h-25H97H72H47H22H-3V84z"/>
	<path fill="#D8D8DD" d="M1451.1,84l-55.8-7l-55.8-6l-55.8,5l-55.8,7l-55.8-6l-55.8-2l-55.8,8l-55.8-7l-55.8,4l-55.8-2h-55.8L781,75
		l-55.8,1l-55.8,5l-55.8-4l-55.8-4l-55.8,7L446,72V-8h55.8h55.8h55.8h55.8h55.8H781h55.8h55.8h55.8h55.8h55.8h55.8h55.8h55.8h55.8
		h55.8h55.8h55.8V84z"/>
</g>
<g id="mid2">
	<path fill="#B2B3BB" d="M-105.7,58l34.9,4l34.9,5l34.9-9L34,68L69,62l34.9,3l34.9,2l34.9,2l34.9,1l34.9-13l34.9,11l34.9-6l34.9-2
		l34.9,8l34.9-4l34.9-2l34.9-1l34.9-3V-8h-34.9h-34.9h-34.9h-34.9h-34.9h-34.9h-34.9h-34.9h-34.9h-34.9h-34.9h-34.9H69H34H-0.9
		h-34.9h-34.9h-34.9V58z"/>
	<path fill="#B2B3BB" d="M1383.7,58l-47.8,4l-47.8,5l-47.8-9l-47.8,10l-47.8-6l-47.8,3l-47.8,2l-47.8,2l-47.8,1l-47.8-13l-47.8,11
		L810,62l-47.8-2l-47.8,8l-47.8-4l-47.8-2L571,61l-47.8-3V-8H571h47.8h47.8h47.8h47.8H810h47.8h47.8h47.8h47.8h47.8h47.8h47.8h47.8
		h47.8h47.8h47.8h47.8V58z"/>
</g>
<g id="mid1">
	<path fill="#8E8F9B" d="M1156,56l-40.9-11l-40.9,3l-40.9,4l-40.9-9l-40.9,6l-40.9-6L870,46l-40.9,11l-40.9-12l-40.9,1l-40.9,6
		l-40.9-5l-40.9,2L584,56l-40.9-6l-40.9-5l-40.9,2l-40.9,5V-7h40.9h40.9h40.9H584h40.9h40.9h40.9h40.9h40.9h40.9H870h40.9h40.9h40.9
		h40.9h40.9h40.9h40.9V56z"/>
	<path fill="#8E8F9B" d="M-162,56l32.4-11l32.4,3l32.4,4l32.4-9l32.4,6l32.4-6l32.4,3l32.4,11l32.4-12l32.4,1l32.4,6l32.4-5l32.4,2
		l32.4,7l32.4-6l32.4-5l32.4,2l32.4,5V-7h-32.4h-32.4h-32.4h-32.4h-32.4h-32.4H194h-32.4h-32.4H96.9H64.6H32.2H-0.2h-32.4h-32.4
		h-32.4h-32.4H-162V56z"/>
</g>
<g id="dark2">
	<path fill="#6B6C7C" d="M-92,39l40.9,1l40.9-8l40.9-2l40.9,1l40.9,8h40.9l40.9-9l40.9,6l40.9,3l40.9,2l40.9-6l40.9,1l40.9-2l40.9-4
		h40.9l40.9,3l40.9,3l40.9,2V-7h-40.9h-40.9h-40.9h-40.9h-40.9h-40.9H358H317h-40.9h-40.9h-40.9h-40.9h-40.9H71.6H30.7h-40.9h-40.9
		H-92V39z"/>
	<path fill="#6B6C7C" d="M1317,39l-37.4,1l-37.4-8l-37.4-2l-37.4,1l-37.4,8h-37.4l-37.4-9l-37.4,6l-37.4,3l-37.4,2l-37.4-6l-37.4,1
		l-37.4-2l-37.4-4h-37.4L719,33l-37.4,3l-37.4,2V-7h37.4H719h37.4h37.4h37.4h37.4h37.4h37.4h37.4h37.4h37.4h37.4h37.4h37.4h37.4
		h37.4h37.4h37.4V39z"/>
</g>
<g id="dark1">
	<path fill="#4A4C5E" d="M-72,22l34.6-3l34.6,4l34.6-3l34.6,4l34.6-1l34.6-6l34.6,3l34.6-3l34.6,6l34.6-6l34.6,9l34.6-3l34.6-2
		l34.6,1l34.6-5l34.6,9l34.6-10l34.6,6V-7h-34.6h-34.6h-34.6h-34.6h-34.6H343h-34.6h-34.6h-34.6h-34.6h-34.6h-34.6h-34.6H66.3H31.7
		H-2.8h-34.6H-72V22z"/>
	<path fill="#4A4C5E" d="M1336,22l-43.7-3l-43.7,4l-43.7-3l-43.7,4l-43.7-1l-43.7-6l-43.7,3l-43.7-3l-43.7,6L899,17l-43.7,9l-43.7-3
		l-43.7-2l-43.7,1l-43.7-5l-43.7,9l-43.7-10l-43.7,6V-7h43.7h43.7h43.7h43.7h43.7h43.7h43.7H899h43.7h43.7h43.7h43.7h43.7h43.7h43.7
		h43.7h43.7h43.7V22z"/>
</g>
<g id="dark0">
	<path fill="#2B2D42" d="M-131.3,9h28.1l28.1,1l28.1,3l28.1-10l28.1,9l28.1-5l28.1,2l28.1-2l28.1,3l28.1-4l28.1-2l28.1-1l28.1,7
		l28.1-1l28.1-4H319l28.1,2l28.1-4v-7h-28.1H319h-28.1h-28.1h-28.1h-28.1h-28.1h-28.1H122H93.8H65.7H37.5H9.4h-28.1h-28.1H-75h-28.1
		h-28.1V9z"/>
	<path fill="#2B2D42" d="M1033.5,9H997l-36.6,1l-36.6,3L887.3,3l-36.6,9l-36.6-5l-36.6,2L741,7l-36.6,3l-36.6-4l-36.6-2l-36.6-1
		l-36.6,7l-36.6-1L485,5h-36.6l-36.6,2l-36.6-4v-7h36.6h36.6H485h36.6h36.6h36.6h36.6h36.6h36.6H741h36.6h36.6h36.6h36.6h36.6h36.6
		H997h36.6V9z"/>
</g>
</svg>
