<svg id="visual" viewBox="0 0 900 600" width="900" height="600" xmlns="http://www.w3.org/2000/svg" xmlns:xlink="http://www.w3.org/1999/xlink" version="1.1"><rect x="0" y="0" width="900" height="600" fill="#FFFFFF"></rect><path d="M0 98L50 99L100 97L150 103L200 101L250 97L300 102L350 94L400 103L450 96L500 107L550 98L600 94L650 103L700 108L750 101L800 94L850 96L900 99L900 0L850 0L800 0L750 0L700 0L650 0L600 0L550 0L500 0L450 0L400 0L350 0L300 0L250 0L200 0L150 0L100 0L50 0L0 0Z" fill="#ffffff"></path><path d="M0 94L50 89L100 89L150 92L200 84L250 95L300 88L350 84L400 84L450 82L500 85L550 91L600 85L650 91L700 86L750 94L800 88L850 82L900 94L900 0L850 0L800 0L750 0L700 0L650 0L600 0L550 0L500 0L450 0L400 0L350 0L300 0L250 0L200 0L150 0L100 0L50 0L0 0Z" fill="#dedee2"></path><path d="M0 80L50 76L100 80L150 79L200 74L250 77L300 75L350 81L400 71L450 71L500 71L550 80L600 78L650 76L700 81L750 76L800 76L850 81L900 70L900 0L850 0L800 0L750 0L700 0L650 0L600 0L550 0L500 0L450 0L400 0L350 0L300 0L250 0L200 0L150 0L100 0L50 0L0 0Z" fill="#bdbec5"></path><path d="M0 63L50 67L100 68L150 62L200 61L250 57L300 65L350 66L400 60L450 59L500 68L550 58L600 66L650 60L700 61L750 68L800 66L850 62L900 58L900 0L850 0L800 0L750 0L700 0L650 0L600 0L550 0L500 0L450 0L400 0L350 0L300 0L250 0L200 0L150 0L100 0L50 0L0 0Z" fill="#9d9ea9"></path><path d="M0 55L50 55L100 45L150 54L200 53L250 47L300 55L350 54L400 55L450 46L500 46L550 50L600 53L650 49L700 48L750 49L800 54L850 50L900 56L900 0L850 0L800 0L750 0L700 0L650 0L600 0L550 0L500 0L450 0L400 0L350 0L300 0L250 0L200 0L150 0L100 0L50 0L0 0Z" fill="#7f808e"></path><path d="M0 41L50 43L100 39L150 40L200 43L250 41L300 37L350 34L400 42L450 43L500 40L550 43L600 34L650 43L700 41L750 33L800 39L850 42L900 42L900 0L850 0L800 0L750 0L700 0L650 0L600 0L550 0L500 0L450 0L400 0L350 0L300 0L250 0L200 0L150 0L100 0L50 0L0 0Z" fill="#626373"></path><path d="M0 30L50 21L100 28L150 23L200 22L250 29L300 21L350 27L400 29L450 27L500 29L550 22L600 30L650 23L700 30L750 24L800 22L850 24L900 26L900 0L850 0L800 0L750 0L700 0L650 0L600 0L550 0L500 0L450 0L400 0L350 0L300 0L250 0L200 0L150 0L100 0L50 0L0 0Z" fill="#46475a"></path><path d="M0 13L50 13L100 14L150 17L200 7L250 16L300 11L350 13L400 11L450 14L500 10L550 8L600 7L650 14L700 13L750 9L800 9L850 11L900 7L900 0L850 0L800 0L750 0L700 0L650 0L600 0L550 0L500 0L450 0L400 0L350 0L300 0L250 0L200 0L150 0L100 0L50 0L0 0Z" fill="#2b2d42"></path></svg>