<?xml version="1.0" encoding="utf-8"?>
<!-- Generator: Adobe Illustrator 26.3.1, SVG Export Plug-In . SVG Version: 6.00 Build 0)  -->
<svg version="1.1" id="visual" xmlns="http://www.w3.org/2000/svg" xmlns:xlink="http://www.w3.org/1999/xlink" x="0px" y="0px"
	 viewBox="0 0 900 600" enable-background="new 0 0 900 600" xml:space="preserve">
<g>
	<rect y="0" fill="#FFFFFF" width="900" height="600"/>
</g>
<g id="blco">
	<path fill="#FFFFFF" d="M-820.7,91l50-7l50,13l50-15l50,11l50-9l50,9l50,4h50l50-7h50l50,6l50-9l50,6l50-8h50l50,10l50-5l50-4v-96
		h-50h-50h-50h-50h-50h-50h-50h-50h-50h-50h-50h-50h-50h-50h-50h-50h-50h-50V91z"/>
	<path fill="#FFFFFF" d="M982.4,91l-50.2-7l-50.2,13l-50.2-15l-50.2,11l-50.2-9l-50.2,9l-50.2,4H581l-50.2-7h-50.2l-50.2,6l-50.2-9
		l-50.2,6L280,85h-50.2l-50.2,10l-50.2-5l-50.2-4v-96h50.2h50.2h50.2H280h50.2h50.2h50.2h50.2h50.2H581h50.2h50.2h50.2h50.2h50.2
		h50.2h50.2h50.2V91z"/>
</g>
<g id="gris">
	<path fill="#D8D8DD" d="M-423,80l25-7l25-6l25,5l25,7l25-6l25-2l25,8l25-7l25,4l25-2h25l25-3l25,1l25,5l25-4l25-4l25,7l25-8v-80H2
		h-25h-25h-25h-25h-25h-25h-25h-25h-25h-25h-25h-25h-25h-25h-25h-25h-25V80z"/>
	<path fill="#D8D8DD" d="M1031.1,80l-55.8-7l-55.8-6l-55.8,5l-55.8,7l-55.8-6l-55.8-2l-55.8,8l-55.8-7l-55.8,4l-55.8-2h-55.8L361,71
		l-55.8,1l-55.8,5l-55.8-4l-55.8-4l-55.8,7L26,68v-80h55.8h55.8h55.8h55.8h55.8H361h55.8h55.8h55.8h55.8h55.8h55.8h55.8h55.8h55.8
		h55.8h55.8h55.8V80z"/>
</g>
<g id="mid2">
	<path fill="#B2B3BB" d="M-5.7,53l34.9,4l34.9,5l34.9-9L134,63l34.9-6l34.9,3l34.9,2l34.9,2l34.9,1l34.9-13l34.9,11l34.9-6l34.9-2
		l34.9,8l34.9-4l34.9-2l34.9-1l34.9-3v-66h-34.9h-34.9h-34.9h-34.9h-34.9h-34.9h-34.9h-34.9h-34.9h-34.9h-34.9h-34.9H169H134H99.1
		H64.2H29.2H-5.7V53z"/>
	<path fill="#B2B3BB" d="M1483.7,53l-47.8,4l-47.8,5l-47.8-9l-47.8,10l-47.8-6l-47.8,3l-47.8,2l-47.8,2l-47.8,1l-47.8-13l-47.8,11
		L910,57l-47.8-2l-47.8,8l-47.8-4l-47.8-2L671,56l-47.8-3v-66H671h47.8h47.8h47.8h47.8H910h47.8h47.8h47.8h47.8h47.8h47.8h47.8h47.8
		h47.8h47.8h47.8h47.8V53z"/>
</g>
<g id="mid1">
	<path fill="#8E8F9B" d="M976,52l-40.9-11l-40.9,3l-40.9,4l-40.9-9l-40.9,6l-40.9-6L690,42l-40.9,11l-40.9-12l-40.9,1l-40.9,6
		l-40.9-5l-40.9,2L404,52l-40.9-6l-40.9-5l-40.9,2l-40.9,5v-59h40.9h40.9h40.9H404h40.9h40.9h40.9h40.9h40.9h40.9H690h40.9h40.9
		h40.9h40.9h40.9h40.9H976V52z"/>
	<path fill="#8E8F9B" d="M-342,52l32.4-11l32.4,3l32.4,4l32.4-9l32.4,6l32.4-6l32.4,3l32.4,11l32.4-12l32.4,1L14,48l32.4-5l32.4,2
		l32.4,7l32.4-6l32.4-5l32.4,2l32.4,5v-59h-32.4h-32.4h-32.4h-32.4H78.7H46.4H14h-32.4h-32.4h-32.4h-32.4h-32.4h-32.4h-32.4h-32.4
		h-32.4h-32.4H-342V52z"/>
</g>
<g id="dark2">
	<path fill="#6B6C7C" d="M-12,35l40.9,1l40.9-8l40.9-2l40.9,1l40.9,8h40.9l40.9-9l40.9,6l40.9,3l40.9,2l40.9-6l40.9,1l40.9-2l40.9-4
		h40.9l40.9,3l40.9,3l40.9,2v-45h-40.9h-40.9h-40.9h-40.9h-40.9h-40.9H438H397h-40.9h-40.9h-40.9h-40.9h-40.9h-40.9h-40.9H69.8H28.9
		H-12V35z"/>
	<path fill="#6B6C7C" d="M1397,35l-37.4,1l-37.4-8l-37.4-2l-37.4,1l-37.4,8h-37.4l-37.4-9l-37.4,6l-37.4,3l-37.4,2l-37.4-6l-37.4,1
		l-37.4-2l-37.4-4h-37.4L799,29l-37.4,3l-37.4,2v-45h37.4H799h37.4h37.4h37.4h37.4h37.4h37.4h37.4h37.4h37.4h37.4h37.4h37.4h37.4
		h37.4h37.4h37.4V35z"/>
</g>
<g id="dark1">
	<path fill="#4A4C5E" d="M-282,20l34.6-3l34.6,4l34.6-3l34.6,4l34.6-1l34.6-6l34.6,3l34.6-3l34.6,6l34.6-6l34.6,9l34.6-3l34.6-2
		l34.6,1l34.6-5l34.6,9l34.6-10l34.6,6V-9h-34.6h-34.6h-34.6h-34.6h-34.6H133H98.4H63.8H29.2H-5.4h-34.6h-34.6h-34.6h-34.6h-34.6
		h-34.6h-34.6H-282V20z"/>
	<path fill="#4A4C5E" d="M1126,20l-43.7-3l-43.7,4l-43.7-3l-43.7,4l-43.7-1l-43.7-6l-43.7,3l-43.7-3l-43.7,6L689,15l-43.7,9l-43.7-3
		l-43.7-2l-43.7,1l-43.7-5l-43.7,9l-43.7-10l-43.7,6V-9h43.7h43.7h43.7h43.7h43.7h43.7h43.7H689h43.7h43.7h43.7h43.7h43.7h43.7h43.7
		h43.7h43.7h43.7V20z"/>
</g>
<g id="dark0">
	<path fill="#2B2D42" d="M-41.3,8h28.1L15,9l28.1,3L71.3,2l28.1,9l28.1-5l28.1,2l28.1-2L212,9l28.1-4l28.1-2l28.1-1l28.1,7l28.1-1
		l28.1-4H409l28.1,2l28.1-4v-7h-28.1H409h-28.1h-28.1h-28.1h-28.1h-28.1h-28.1H212h-28.1h-28.1h-28.1H99.4H71.3H43.1H15h-28.1h-28.1
		V8z"/>
	<path fill="#2B2D42" d="M1123.5,8H1087l-36.6,1l-36.6,3L977.3,2l-36.6,9l-36.6-5l-36.6,2L831,6l-36.6,3l-36.6-4l-36.6-2l-36.6-1
		l-36.6,7l-36.6-1L575,4h-36.6l-36.6,2l-36.6-4v-7h36.6h36.6H575h36.6h36.6h36.6h36.6h36.6h36.6H831h36.6h36.6h36.6h36.6h36.6h36.6
		h36.6h36.6V8z"/>
</g>
</svg>
