<?xml version="1.0" encoding="utf-8"?>
<!-- Generator: Adobe Illustrator 26.3.1, SVG Export Plug-In . SVG Version: 6.00 Build 0)  -->
<svg version="1.1" id="visual" xmlns="http://www.w3.org/2000/svg" xmlns:xlink="http://www.w3.org/1999/xlink" x="0px" y="0px"
	 viewBox="0 0 900 600" enable-background="new 0 0 900 600" xml:space="preserve">
<g>
	<rect y="0" fill="#FFFFFF" width="900" height="600"/>
</g>
<g id="blco">
	<path fill="#FFFFFF" d="M-373.7,97l50-7l50,13l50-15l50,11l50-9l50,9l50,4h50l50-7h50l50,6l50-9l50,6l50-8h50l50,10l50-5l50-4V-4
		h-50h-50h-50h-50h-50h-50h-50h-50h-50h-50h-50h-50h-50h-50h-50h-50h-50h-50V97z"/>
	<path fill="#FFFFFF" d="M1429.4,97l-50.2-7l-50.2,13l-50.2-15l-50.2,11l-50.2-9l-50.2,9l-50.2,4H1028l-50.2-7h-50.2l-50.2,6
		l-50.2-9l-50.2,6L727,91h-50.2l-50.2,10l-50.2-5l-50.2-4V-4h50.2h50.2h50.2H727h50.2h50.2h50.2h50.2h50.2h50.2h50.2h50.2h50.2h50.2
		h50.2h50.2h50.2h50.2V97z"/>
</g>
<g id="gris">
	<path fill="#D8D8DD" d="M-203,88l25-7l25-6l25,5l25,7l25-6l25-2l25,8l25-7l25,4l25-2h25l25-3l25,1l25,5l25-4l25-4l25,7l25-8V-4h-25
		h-25h-25h-25h-25H97H72H47H22H-3h-25h-25h-25h-25h-25h-25h-25h-25V88z"/>
	<path fill="#D8D8DD" d="M1251.1,88l-55.8-7l-55.8-6l-55.8,5l-55.8,7l-55.8-6l-55.8-2l-55.8,8l-55.8-7l-55.8,4l-55.8-2h-55.8L581,79
		l-55.8,1l-55.8,5l-55.8-4l-55.8-4l-55.8,7L246,76V-4h55.8h55.8h55.8h55.8h55.8H581h55.8h55.8h55.8h55.8h55.8h55.8h55.8h55.8h55.8
		h55.8h55.8h55.8V88z"/>
</g>
<g id="mid2">
	<path fill="#B2B3BB" d="M-265.7,62l34.9,4l34.9,5l34.9-9l34.9,10l34.9-6l34.9,3l34.9,2l34.9,2l34.9,1l34.9-13l34.9,11l34.9-6
		l34.9-2l34.9,8l34.9-4l34.9-2l34.9-1l34.9-3V-4h-34.9h-34.9h-34.9h-34.9h-34.9h-34.9h-34.9H83.7H48.7H13.8h-34.9h-34.9H-91H-126
		h-34.9h-34.9h-34.9h-34.9V62z"/>
	<path fill="#B2B3BB" d="M1223.7,62l-47.8,4l-47.8,5l-47.8-9l-47.8,10l-47.8-6l-47.8,3L889,71l-47.8,2l-47.8,1l-47.8-13l-47.8,11
		L650,66l-47.8-2l-47.8,8l-47.8-4l-47.8-2L411,65l-47.8-3V-4H411h47.8h47.8h47.8h47.8H650h47.8h47.8h47.8h47.8H889h47.8h47.8h47.8
		h47.8h47.8h47.8h47.8V62z"/>
</g>
<g id="mid1">
	<path fill="#8E8F9B" d="M1006,60l-40.9-11l-40.9,3l-40.9,4l-40.9-9l-40.9,6l-40.9-6L720,50l-40.9,11l-40.9-12l-40.9,1l-40.9,6
		l-40.9-5l-40.9,2L434,60l-40.9-6l-40.9-5l-40.9,2l-40.9,5V-3h40.9h40.9h40.9H434h40.9h40.9h40.9h40.9h40.9h40.9H720h40.9h40.9h40.9
		h40.9h40.9h40.9h40.9V60z"/>
	<path fill="#8E8F9B" d="M-312,60l32.4-11l32.4,3l32.4,4l32.4-9l32.4,6l32.4-6l32.4,3l32.4,11l32.4-12l32.4,1L44,56l32.4-5l32.4,2
		l32.4,7l32.4-6l32.4-5l32.4,2l32.4,5V-3h-32.4h-32.4h-32.4h-32.4h-32.4H76.4H44H11.7h-32.4h-32.4h-32.4h-32.4h-32.4h-32.4h-32.4
		h-32.4h-32.4H-312V60z"/>
</g>
<g id="dark2">
	<path fill="#6B6C7C" d="M-173,43l40.9,1l40.9-8l40.9-2l40.9,1l40.9,8h40.9l40.9-9l40.9,6l40.9,3l40.9,2l40.9-6l40.9,1l40.9-2
		l40.9-4h40.9l40.9,3l40.9,3l40.9,2V-3h-40.9h-40.9h-40.9h-40.9h-40.9h-40.9H277H236h-40.9h-40.9h-40.9H72.4H31.5H-9.4h-40.9h-40.9
		h-40.9H-173V43z"/>
	<path fill="#6B6C7C" d="M1236,43l-37.4,1l-37.4-8l-37.4-2l-37.4,1l-37.4,8h-37.4l-37.4-9L937,40l-37.4,3l-37.4,2l-37.4-6l-37.4,1
		l-37.4-2l-37.4-4h-37.4L638,37l-37.4,3l-37.4,2V-3h37.4H638h37.4h37.4h37.4h37.4h37.4h37.4h37.4H937h37.4h37.4h37.4h37.4h37.4h37.4
		h37.4h37.4V43z"/>
</g>
<g id="dark1">
	<path fill="#4A4C5E" d="M-172,26l34.6-3l34.6,4l34.6-3l34.6,4l34.6-1l34.6-6l34.6,3l34.6-3l34.6,6l34.6-6l34.6,9l34.6-3l34.6-2
		l34.6,1l34.6-5l34.6,9l34.6-10l34.6,6V-3h-34.6h-34.6h-34.6h-34.6h-34.6H243h-34.6h-34.6h-34.6h-34.6H70.1H35.5H0.9h-34.6h-34.6
		h-34.6h-34.6H-172V26z"/>
	<path fill="#4A4C5E" d="M1236,26l-43.7-3l-43.7,4l-43.7-3l-43.7,4l-43.7-1l-43.7-6l-43.7,3l-43.7-3l-43.7,6L799,21l-43.7,9l-43.7-3
		l-43.7-2l-43.7,1l-43.7-5l-43.7,9l-43.7-10l-43.7,6V-3h43.7h43.7h43.7h43.7h43.7h43.7h43.7H799h43.7h43.7h43.7h43.7h43.7h43.7h43.7
		h43.7h43.7h43.7V26z"/>
</g>
<g id="dark0">
	<path fill="#2B2D42" d="M-251.3,10h28.1l28.1,1l28.1,3l28.1-10l28.1,9l28.1-5l28.1,2l28.1-2L2,11l28.1-4l28.1-2l28.1-1l28.1,7
		l28.1-1l28.1-4H199l28.1,2l28.1-4v-7h-28.1H199h-28.1h-28.1h-28.1H86.4H58.3H30.1H2h-28.1h-28.1h-28.1h-28.1h-28.1h-28.1H-195
		h-28.1h-28.1V10z"/>
	<path fill="#2B2D42" d="M913.5,10H877l-36.6,1l-36.6,3L767.3,4l-36.6,9l-36.6-5l-36.6,2L621,8l-36.6,3l-36.6-4l-36.6-2l-36.6-1
		l-36.6,7l-36.6-1L365,6h-36.6l-36.6,2l-36.6-4v-7h36.6h36.6H365h36.6h36.6h36.6h36.6h36.6h36.6H621h36.6h36.6h36.6h36.6h36.6h36.6
		H877h36.6V10z"/>
</g>
</svg>
