<?xml version="1.0" encoding="utf-8"?>
<!-- Generator: Adobe Illustrator 26.3.1, SVG Export Plug-In . SVG Version: 6.00 Build 0)  -->
<svg version="1.1" id="visual" xmlns="http://www.w3.org/2000/svg" xmlns:xlink="http://www.w3.org/1999/xlink" x="0px" y="0px"
	 viewBox="0 0 1175 600" enable-background="new 0 0 1175 600" xml:space="preserve">
<rect y="0" fill="#2B2D42" width="1175" height="600"/>
<path fill="#2B2D42" d="M0,543l50.9-7l50.9,20l50.9,10l52.2-17l50.9-12l50.9-5l50.9,29l50.9-1l50.9-5l50.9-14l50.9,31l52.2-36
	l50.9-2l50.9,13l50.9-10l50.9-2l50.9,14l50.9,3l50.9-15l52.2,24l50.9-26l50.9-1l50.9,18V0h-50.9h-50.9h-50.9H970h-50.9h-50.9h-50.9
	h-50.9h-50.9h-50.9h-50.9h-52.2h-50.9h-50.9h-50.9h-50.9h-50.9h-50.9H205h-52.2h-50.9H50.9H0V543z"/>
<path fill="#2F3148" d="M0,522l50.9-22l50.9,2l50.9-3l52.2-4h50.9l50.9,7l50.9,3l50.9-13l50.9,25l50.9,12l50.9-32l52.2-7l50.9,6
	l50.9-5l50.9,36l50.9,1l50.9-43l50.9,7l50.9,38l52.2-23l50.9-20l50.9,36l50.9-19V0h-50.9h-50.9h-50.9H970h-50.9h-50.9h-50.9h-50.9
	h-50.9h-50.9h-50.9h-52.2h-50.9h-50.9h-50.9h-50.9h-50.9h-50.9H205h-52.2h-50.9H50.9H0V522z"/>
<path fill="#32354F" d="M0,438l50.9,25l50.9-15l50.9,16l52.2,12l50.9-22l50.9,18l50.9,6l50.9-36l50.9-2l50.9,23l50.9,6l52.2-16
	l50.9-6l50.9,6l50.9-6l50.9,10l50.9,14l50.9-21H970l52.2,25l50.9-31l50.9,39l50.9-37V0h-50.9h-50.9h-50.9H970h-50.9h-50.9h-50.9
	h-50.9h-50.9h-50.9h-50.9h-52.2h-50.9h-50.9h-50.9h-50.9h-50.9h-50.9H205h-52.2h-50.9H50.9H0V438z"/>
<path fill="#363955" d="M0,404l50.9,14l50.9-4l50.9-11l52.2-6l50.9,13l50.9,22l50.9,1l50.9-11l50.9,1l50.9-19l50.9-11l52.2,10
	l50.9-7l50.9,23l50.9-23l50.9,37l50.9-41l50.9,14l50.9,30l52.2-33l50.9,4l50.9-13l50.9,17V0h-50.9h-50.9h-50.9H970h-50.9h-50.9
	h-50.9h-50.9h-50.9h-50.9h-50.9h-52.2h-50.9h-50.9h-50.9h-50.9h-50.9h-50.9H205h-52.2h-50.9H50.9H0V404z"/>
<path fill="#3A3D5C" d="M0,380l50.9,4l50.9-21l50.9,16l52.2-13l50.9-16l50.9,37l50.9-28l50.9,7l50.9-16l50.9,32l50.9-20l52.2,6
	l50.9-6l50.9,12l50.9-8l50.9,25l50.9-39l50.9-5l50.9,43l52.2-1l50.9-2l50.9-30l50.9-1V0h-50.9h-50.9h-50.9H970h-50.9h-50.9h-50.9
	h-50.9h-50.9h-50.9h-50.9h-52.2h-50.9h-50.9h-50.9h-50.9h-50.9h-50.9H205h-52.2h-50.9H50.9H0V380z"/>
<path fill="#3E4163" d="M0,311l50.9,22l50.9-23l50.9,20l52.2-19l50.9,13l50.9-22l50.9,6l50.9,24l50.9-32l50.9,28l50.9-24l52.2,4
	l50.9-6l50.9,2l50.9,37l50.9-15l50.9,13l50.9-8l50.9-10l52.2,14l50.9-28l50.9,10l50.9-4V0h-50.9h-50.9h-50.9H970h-50.9h-50.9h-50.9
	h-50.9h-50.9h-50.9h-50.9h-52.2h-50.9h-50.9h-50.9h-50.9h-50.9h-50.9H205h-52.2h-50.9H50.9H0V311z"/>
<path fill="#424569" d="M0,255l50.9,41l50.9-18l50.9-4l52.2,6l50.9-19l50.9,6l50.9,24l50.9-31l50.9,4l50.9,11l50.9-6l52.2-6l50.9,1
	l50.9,6l50.9-5l50.9,1l50.9,12l50.9-20l50.9,31l52.2,7l50.9-7l50.9-30l50.9,25V0h-50.9h-50.9h-50.9H970h-50.9h-50.9h-50.9h-50.9
	h-50.9h-50.9h-50.9h-52.2h-50.9h-50.9h-50.9h-50.9h-50.9h-50.9H205h-52.2h-50.9H50.9H0V255z"/>
<path fill="#464970" d="M0,212l50.9,13l50.9,13l50.9-11l52.2,5l50.9-19l50.9-3h50.9l50.9,31l50.9-29l50.9,7l50.9,1l52.2,12l50.9-20
	l50.9,16l50.9,6l50.9,15l50.9-2l50.9-34l50.9,14l52.2,20l50.9-32l50.9,4l50.9,16V0h-50.9h-50.9h-50.9H970h-50.9h-50.9h-50.9h-50.9
	h-50.9h-50.9h-50.9h-52.2h-50.9h-50.9h-50.9h-50.9h-50.9h-50.9H205h-52.2h-50.9H50.9H0V212z"/>
<path fill="#4A4E77" d="M0,205l50.9-27l50.9,5l50.9,11l52.2-13l50.9-2l50.9,27l50.9-13l50.9,4l50.9-21l50.9-2l50.9,9l52.2-16
	l50.9,14l50.9,9l50.9-9l50.9-16l50.9,11l50.9,11l50.9,7l52.2-16l50.9,21l50.9-21l50.9,13V0h-50.9h-50.9h-50.9H970h-50.9h-50.9h-50.9
	h-50.9h-50.9h-50.9h-50.9h-52.2h-50.9h-50.9h-50.9h-50.9h-50.9h-50.9H205h-52.2h-50.9H50.9H0V205z"/>
<path fill="#4E527F" d="M0,133l50.9-14l50.9,1l50.9,5l52.2-10l50.9,43l50.9-24l50.9,24l50.9-9l50.9,1l50.9,4l50.9-4l52.2-5l50.9-30
	l50.9,30l50.9,9l50.9-38l50.9,26l50.9,8l50.9,9l52.2-24l50.9,21l50.9-34l50.9,18V0h-50.9h-50.9h-50.9H970h-50.9h-50.9h-50.9h-50.9
	h-50.9h-50.9h-50.9h-52.2h-50.9h-50.9h-50.9h-50.9h-50.9h-50.9H205h-52.2h-50.9H50.9H0V133z"/>
<path fill="#525786" d="M0,71h50.9l50.9,8l50.9,14L205,79l50.9-8l50.9,42l50.9-9l50.9-22l50.9,7l50.9-6l50.9,16l52.2,13l50.9,2
	l50.9-42l50.9,28l50.9-1h50.9l50.9-17l50.9,24l52.2,5l50.9-41l50.9,19l50.9,13V0h-50.9h-50.9h-50.9H970h-50.9h-50.9h-50.9h-50.9
	h-50.9h-50.9h-50.9h-52.2h-50.9h-50.9h-50.9h-50.9h-50.9h-50.9H205h-52.2h-50.9H50.9H0V71z"/>
<path fill="#565B8D" d="M0,55l50.9-30l50.9,4l50.9-5L205,59l50.9,5l50.9-39l50.9,41l50.9-38l50.9,17l50.9-14l50.9,4h52.2l50.9,2
	l50.9-8l50.9,33l50.9,6l50.9-43l50.9,15l50.9-4l52.2,7l50.9,17l50.9-15l50.9,4V0h-50.9h-50.9h-50.9H970h-50.9h-50.9h-50.9h-50.9
	h-50.9h-50.9h-50.9h-52.2h-50.9h-50.9h-50.9h-50.9h-50.9h-50.9H205h-52.2h-50.9H50.9H0V55z"/>
</svg>
