<svg id="visual" viewBox="0 0 900 600" width="900" height="600" xmlns="http://www.w3.org/2000/svg" xmlns:xlink="http://www.w3.org/1999/xlink" version="1.1"><rect x="0" y="0" width="900" height="600" fill="#565b8d"></rect><path d="M0 543L39 536L78 556L117 566L157 549L196 537L235 532L274 561L313 560L352 555L391 541L430 572L470 536L509 534L548 547L587 537L626 535L665 549L704 552L743 537L783 561L822 535L861 534L900 552L900 0L861 0L822 0L783 0L743 0L704 0L665 0L626 0L587 0L548 0L509 0L470 0L430 0L391 0L352 0L313 0L274 0L235 0L196 0L157 0L117 0L78 0L39 0L0 0Z" fill="#565b8d"></path><path d="M0 522L39 500L78 502L117 499L157 495L196 495L235 502L274 505L313 492L352 517L391 529L430 497L470 490L509 496L548 491L587 527L626 528L665 485L704 492L743 530L783 507L822 487L861 523L900 504L900 0L861 0L822 0L783 0L743 0L704 0L665 0L626 0L587 0L548 0L509 0L470 0L430 0L391 0L352 0L313 0L274 0L235 0L196 0L157 0L117 0L78 0L39 0L0 0Z" fill="#525786"></path><path d="M0 438L39 463L78 448L117 464L157 476L196 454L235 472L274 478L313 442L352 440L391 463L430 469L470 453L509 447L548 453L587 447L626 457L665 471L704 450L743 450L783 475L822 444L861 483L900 446L900 0L861 0L822 0L783 0L743 0L704 0L665 0L626 0L587 0L548 0L509 0L470 0L430 0L391 0L352 0L313 0L274 0L235 0L196 0L157 0L117 0L78 0L39 0L0 0Z" fill="#4e527f"></path><path d="M0 404L39 418L78 414L117 403L157 397L196 410L235 432L274 433L313 422L352 423L391 404L430 393L470 403L509 396L548 419L587 396L626 433L665 392L704 406L743 436L783 403L822 407L861 394L900 411L900 0L861 0L822 0L783 0L743 0L704 0L665 0L626 0L587 0L548 0L509 0L470 0L430 0L391 0L352 0L313 0L274 0L235 0L196 0L157 0L117 0L78 0L39 0L0 0Z" fill="#4a4e77"></path><path d="M0 380L39 384L78 363L117 379L157 366L196 350L235 387L274 359L313 366L352 350L391 382L430 362L470 368L509 362L548 374L587 366L626 391L665 352L704 347L743 390L783 389L822 387L861 357L900 356L900 0L861 0L822 0L783 0L743 0L704 0L665 0L626 0L587 0L548 0L509 0L470 0L430 0L391 0L352 0L313 0L274 0L235 0L196 0L157 0L117 0L78 0L39 0L0 0Z" fill="#464970"></path><path d="M0 311L39 333L78 310L117 330L157 311L196 324L235 302L274 308L313 332L352 300L391 328L430 304L470 308L509 302L548 304L587 341L626 326L665 339L704 331L743 321L783 335L822 307L861 317L900 313L900 0L861 0L822 0L783 0L743 0L704 0L665 0L626 0L587 0L548 0L509 0L470 0L430 0L391 0L352 0L313 0L274 0L235 0L196 0L157 0L117 0L78 0L39 0L0 0Z" fill="#424569"></path><path d="M0 255L39 296L78 278L117 274L157 280L196 261L235 267L274 291L313 260L352 264L391 275L430 269L470 263L509 264L548 270L587 265L626 266L665 278L704 258L743 289L783 296L822 289L861 259L900 284L900 0L861 0L822 0L783 0L743 0L704 0L665 0L626 0L587 0L548 0L509 0L470 0L430 0L391 0L352 0L313 0L274 0L235 0L196 0L157 0L117 0L78 0L39 0L0 0Z" fill="#3e4163"></path><path d="M0 212L39 225L78 238L117 227L157 232L196 213L235 210L274 210L313 241L352 212L391 219L430 220L470 232L509 212L548 228L587 234L626 249L665 247L704 213L743 227L783 247L822 215L861 219L900 235L900 0L861 0L822 0L783 0L743 0L704 0L665 0L626 0L587 0L548 0L509 0L470 0L430 0L391 0L352 0L313 0L274 0L235 0L196 0L157 0L117 0L78 0L39 0L0 0Z" fill="#3a3d5c"></path><path d="M0 205L39 178L78 183L117 194L157 181L196 179L235 206L274 193L313 197L352 176L391 174L430 183L470 167L509 181L548 190L587 181L626 165L665 176L704 187L743 194L783 178L822 199L861 178L900 191L900 0L861 0L822 0L783 0L743 0L704 0L665 0L626 0L587 0L548 0L509 0L470 0L430 0L391 0L352 0L313 0L274 0L235 0L196 0L157 0L117 0L78 0L39 0L0 0Z" fill="#363955"></path><path d="M0 133L39 119L78 120L117 125L157 115L196 158L235 134L274 158L313 149L352 150L391 154L430 150L470 145L509 115L548 145L587 154L626 116L665 142L704 150L743 159L783 135L822 156L861 122L900 140L900 0L861 0L822 0L783 0L743 0L704 0L665 0L626 0L587 0L548 0L509 0L470 0L430 0L391 0L352 0L313 0L274 0L235 0L196 0L157 0L117 0L78 0L39 0L0 0Z" fill="#32354f"></path><path d="M0 71L39 71L78 79L117 93L157 79L196 71L235 113L274 104L313 82L352 89L391 83L430 99L470 112L509 114L548 72L587 100L626 99L665 99L704 82L743 106L783 111L822 70L861 89L900 102L900 0L861 0L822 0L783 0L743 0L704 0L665 0L626 0L587 0L548 0L509 0L470 0L430 0L391 0L352 0L313 0L274 0L235 0L196 0L157 0L117 0L78 0L39 0L0 0Z" fill="#2f3148"></path><path d="M0 55L39 25L78 29L117 24L157 59L196 64L235 25L274 66L313 28L352 45L391 31L430 35L470 35L509 37L548 29L587 62L626 68L665 25L704 40L743 36L783 43L822 60L861 45L900 49L900 0L861 0L822 0L783 0L743 0L704 0L665 0L626 0L587 0L548 0L509 0L470 0L430 0L391 0L352 0L313 0L274 0L235 0L196 0L157 0L117 0L78 0L39 0L0 0Z" fill="#2b2d42"></path></svg>